PathFileType	4	(X/Y/Z)	/Users/itak/Documents/Research/Walk-IL/dataset/trc/00205_00008.trc
DataRate	CameraRate	NumFrames	NumMarkers	Units	OrigDataRate	OrigDataStartFrame	OrigNumFrames
100.000000	100.000000	4	53	mm	100.000000	189	505
Frame#	Time	RPSI			LPSI			L3			STRN			T10			C7			CLAV			RBAK			LBAK			LSHO			LUPA			LAEL			LAOL			LWTS			LWPS			LFRA			LIFD			LHPS			LHTS			RSHO			RUPA			RAEL			RAOL			RWTS			RWPS			RFRA			RIFD			RHTS			RHPS			RBHD			LFHD			RFHD			LBHD			LHIP			RHIP			RASI			LASI			LKNE			LTHI			LANK			LTIP			LTOE			LMT1			LMT5			LHEE			RKNE			RTHI			RANK			RTIP			RTOE			RMT1			RMT5			RHEE			
		X1	Y1	Z1	X2	Y2	Z2	X3	Y3	Z3	X4	Y4	Z4	X5	Y5	Z5	X6	Y6	Z6	X7	Y7	Z7	X8	Y8	Z8	X9	Y9	Z9	X10	Y10	Z10	X11	Y11	Z11	X12	Y12	Z12	X13	Y13	Z13	X14	Y14	Z14	X15	Y15	Z15	X16	Y16	Z16	X17	Y17	Z17	X18	Y18	Z18	X19	Y19	Z19	X20	Y20	Z20	X21	Y21	Z21	X22	Y22	Z22	X23	Y23	Z23	X24	Y24	Z24	X25	Y25	Z25	X26	Y26	Z26	X27	Y27	Z27	X28	Y28	Z28	X29	Y29	Z29	X30	Y30	Z30	X31	Y31	Z31	X32	Y32	Z32	X33	Y33	Z33	X34	Y34	Z34	X35	Y35	Z35	X36	Y36	Z36	X37	Y37	Z37	X38	Y38	Z38	X39	Y39	Z39	X40	Y40	Z40	X41	Y41	Z41	X42	Y42	Z42	X43	Y43	Z43	X44	Y44	Z44	X45	Y45	Z45	X46	Y46	Z46	X47	Y47	Z47	X48	Y48	Z48	X49	Y49	Z49	X50	Y50	Z50	X51	Y51	Z51	X52	Y52	Z52	X53	Y53	Z53	

190	1.89	-1019.438720703125	1047.822875976562	-450.4164428710938	-981.9436645507812	1049.295532226562	-567.3703002929688	-1001.304931640625	1087.4609375	-503.4479675292969	-742.9699096679688	1290.89599609375	-425.4939575195312	-1026.62646484375	1246.9228515625	-509.7525329589844	-954.0457763671875	1513.8505859375	-496.2518615722656	-763.7211303710938	1405.7939453125	-439.9693908691406	-1050.594482421875	1339.633422851562	-412.0611572265625	-933.1973266601562	1490.742309570312	-596.0278930664062	-837.7940673828125	1476.90869140625	-649.84521484375	-849.178466796875	1347.990356445312	-732.7490234375	-824.9432373046875	1131.167846679688	-755.52880859375	-886.656982421875	1108.730102539062	-697.713134765625	-675.3554077148438	935.368896484375	-679.2076416015625	-733.739501953125	891.607421875	-736.6895141601562	-783.903076171875	1024.531982421875	-758.6907348632812	-617.3502197265625	766.5415649414062	-635.85302734375	-695.0317993164062	831.578125	-721.6995849609375	-637.1688232421875	863.9677734375	-690.1126708984375	-941.3308715820312	1489.86572265625	-304.9293518066406	-974.0596313476562	1420.949462890625	-241.8686370849609	-966.4459838867188	1130.625	-181.6963348388672	-951.4110717773438	1121.478271484375	-278.7648010253906	-786.2546997070312	936.0946655273438	-163.3875579833984	-862.5416870117188	903.5185546875	-131.0570678710938	-933.755126953125	1063.412231445312	-156.0863800048828	-729.427978515625	754.6403198242188	-176.4476165771484	-742.5449829101562	851.33349609375	-145.4630126953125	-817.3749389648438	829.3441162109375	-123.0450439453125	-932.2200927734375	1667.746459960938	-425.7436828613281	-729.034423828125	1728.11865234375	-470.1309814453125	-786.0853881835938	1725.54296875	-353.5149536132812	-880.7786254882812	1677.733032226562	-552.8748168945312	-845.1226196289062	989.5107421875	-652.5136108398438	-909.8355712890625	1000.825073242188	-284.3690490722656	-815.8948974609375	1031.678833007812	-312.6824340820312	-749.5869140625	1029.995361328125	-558.9801025390625	-632.4366455078125	525.7409057617188	-575.654541015625	-688.6702270507812	658.207275390625	-615.39013671875	-681.4996948242188	45.13379669189453	-598.6419067382812	-650.6992797851562	293.7889099121094	-601.2366943359375	-479.905517578125	81.98484039306641	-541.8588256835938	-530.2163696289062	68.585205078125	-502.4811096191406	-570.9613647460938	46.15653991699219	-617.8098754882812	-741.4675903320312	46.05910873413086	-539.6046752929688	-907.7760620117188	501.4088134765625	-367.0228271484375	-865.6624145507812	763.869873046875	-288.2828369140625	-1006.712158203125	30.37116241455078	-462.834716796875	-897.2827758789062	384.0906372070312	-400.5526123046875	-786.08740234375	51.62558364868164	-446.5167846679688	-826.4874877929688	45.62328338623047	-501.0849304199219	-905.2236328125	31.50073432922363	-402.3189086914062	-1040.85205078125	32.40887451171875	-541.0126953125	
191	1.9	-1011.870910644531	1046.530517578125	-448.9740600585938	-973.314208984375	1047.917114257812	-565.6281127929688	-993.2913818359375	1086.078491210938	-501.8641052246094	-735.438720703125	1289.47265625	-421.9259338378906	-1018.579650878906	1245.669677734375	-508.4095458984375	-945.8729858398438	1512.541748046875	-494.3348693847656	-755.9535522460938	1404.380859375	-436.6542053222656	-1043.212524414062	1338.453125	-410.8456726074219	-924.1685791015625	1489.131958007812	-593.9015502929688	-828.5606079101562	1475.412231445312	-647.0913696289062	-839.4379272460938	1346.438598632812	-730.0054931640625	-815.1836547851562	1129.659790039062	-752.5401611328125	-877.2837524414062	1107.308959960938	-695.0051879882812	-667.2045288085938	932.6085815429688	-676.5778198242188	-725.627685546875	889.5492553710938	-734.453125	-774.8553466796875	1022.8515625	-755.9552612304688	-610.52783203125	763.1871948242188	-633.7097778320312	-687.5038452148438	829.1341552734375	-719.56201171875	-629.472900390625	860.953125	-687.6506958007812	-934.3294067382812	1488.37744140625	-302.8035888671875	-967.5403442382812	1419.518310546875	-239.9962310791016	-959.770263671875	1129.125366210938	-179.9267730712891	-944.35546875	1120.012329101562	-276.9445495605469	-779.9332275390625	934.3206176757812	-161.1503753662109	-856.3299560546875	901.907958984375	-129.0116577148438	-927.2174072265625	1061.907104492188	-154.2539672851562	-723.6244506835938	752.5902709960938	-174.0727081298828	-736.3944091796875	849.4600830078125	-143.1056671142578	-811.3784790039062	827.6365966796875	-120.9065017700195	-924.3301391601562	1666.533325195312	-423.8270874023438	-720.881103515625	1726.474365234375	-467.3266296386719	-778.4713134765625	1724.274780273438	-350.9625244140625	-872.268310546875	1676.17724609375	-550.7135620117188	-835.73779296875	988.137939453125	-649.4503173828125	-903.6253051757812	999.6769409179688	-281.9080200195312	-809.4105834960938	1030.527465820312	-309.4068908691406	-740.9852294921875	1028.5361328125	-555.0445556640625	-622.9915161132812	525.2185668945312	-569.7167358398438	-679.4029541015625	657.08544921875	-610.7896728515625	-652.73291015625	42.9834098815918	-587.788330078125	-632.0792846679688	292.7941284179688	-593.1253051757812	-453.4044494628906	86.98934173583984	-528.1387939453125	-504.0426330566406	72.68344116210938	-489.4656066894531	-542.093505859375	47.34770965576172	-605.1163940429688	-713.6356201171875	42.73487854003906	-529.7522583007812	-903.9937744140625	500.4389953613281	-365.6204528808594	-860.8198852539062	762.5558471679688	-285.9638977050781	-1006.507019042969	30.63818740844727	-463.0624694824219	-894.17578125	383.13330078125	-399.6069030761719	-785.32177734375	50.51966094970703	-446.3567810058594	-826.1503295898438	45.29244232177734	-501.092529296875	-905.166259765625	31.42111015319824	-402.1966857910156	-1040.607055664062	32.71938705444336	-541.3251342773438	
192	1.91	-1004.19091796875	1045.151245117188	-447.4623107910156	-964.6036376953125	1046.462158203125	-563.8156127929688	-985.1477661132812	1084.619873046875	-500.2185363769531	-727.8203125	1287.981811523438	-418.360107421875	-1010.44580078125	1244.355712890625	-507.052001953125	-937.5984497070312	1511.190063476562	-492.4549865722656	-748.094970703125	1402.899047851562	-433.34423828125	-1035.726318359375	1337.213745117188	-409.6439208984375	-915.035400390625	1487.442138671875	-591.7826538085938	-819.2288818359375	1473.827026367188	-644.355224609375	-829.6261596679688	1344.777465820312	-727.239013671875	-805.3818359375	1128.03564453125	-749.4774169921875	-867.864013671875	1105.805541992188	-692.1854248046875	-659.2088012695312	929.5355834960938	-674.0471801757812	-717.7440795898438	887.294189453125	-732.2935791015625	-765.8661499023438	1021.02734375	-753.1903076171875	-604.0595703125	759.4449462890625	-631.7910766601562	-680.2866821289062	826.4302978515625	-717.550048828125	-622.033935546875	857.5968017578125	-685.3436889648438	-927.2445068359375	1486.834350585938	-300.6986694335938	-960.9690551757812	1418.022583007812	-238.1652679443359	-953.2266235351562	1127.549194335938	-178.2642974853516	-937.3721313476562	1118.488525390625	-275.2406005859375	-773.7937622070312	932.4284057617188	-158.8985290527344	-850.3387451171875	900.171875	-127.0745010375977	-920.845458984375	1060.29931640625	-152.5226135253906	-717.9411010742188	750.4884033203125	-171.6981353759766	-730.46435546875	847.4691772460938	-140.7278442382812	-805.6206665039062	825.8003540039062	-118.851448059082	-916.36279296875	1665.239379882812	-421.9124755859375	-712.6642456054688	1724.784057617188	-464.4732055664062	-770.8012084960938	1722.93798828125	-348.3816833496094	-863.6487426757812	1674.571166992188	-548.5462646484375	-826.3192749023438	986.7313842773438	-646.3294677734375	-897.3152465820312	998.4520263671875	-279.4090881347656	-802.852294921875	1029.242431640625	-306.0832214355469	-732.277587890625	1027.008666992188	-551.0628662109375	-613.6600952148438	524.5718994140625	-563.9285888671875	-670.1203002929688	655.891357421875	-606.2965087890625	-624.7574462890625	41.56860733032227	-576.7593383789062	-613.9735107421875	292.1205139160156	-584.9608154296875	-428.0810852050781	92.69416046142578	-514.15283203125	-479.0299682617188	77.44312286376953	-476.2153015136719	-514.1455688476562	49.33688735961914	-592.180908203125	-686.593505859375	40.08589935302734	-519.7945556640625	-899.9823608398438	499.4255981445312	-364.1677856445312	-855.7510375976562	761.1954956054688	-283.6084899902344	-1006.300231933594	30.93728828430176	-463.3053283691406	-890.905029296875	382.1102600097656	-398.6515808105469	-784.5577392578125	49.32885360717773	-446.2483825683594	-825.8197631835938	44.94556427001953	-501.1343078613281	-905.1117553710938	31.36337280273438	-402.09130859375	-1040.370971679688	33.07734680175781	-541.6358032226562	
193	1.92	-996.3922119140625	1043.694946289062	-445.8823852539062	-955.817138671875	1044.939575195312	-561.9337158203125	-976.882568359375	1083.0986328125	-498.5088500976562	-720.109619140625	1286.434692382812	-414.796142578125	-1002.22509765625	1242.994018554688	-505.6694030761719	-929.2166748046875	1509.808471679688	-490.6055603027344	-740.1420288085938	1401.35888671875	-430.0364685058594	-1028.129272460938	1335.9296875	-408.4453430175781	-905.8118896484375	1485.706298828125	-589.6746215820312	-809.7979125976562	1472.16357421875	-641.63525390625	-819.7420043945312	1343.0205078125	-724.4496459960938	-795.5550537109375	1126.31005859375	-746.3482055664062	-858.4009399414062	1104.233032226562	-689.2612915039062	-651.3615112304688	926.17333984375	-671.612548828125	-710.0843505859375	884.8635864257812	-730.20849609375	-756.9388427734375	1019.078857421875	-750.4000854492188	-597.9378662109375	755.3483276367188	-630.098876953125	-673.3724365234375	823.499755859375	-715.665771484375	-614.8505859375	853.9327392578125	-683.1907958984375	-920.0782470703125	1485.269165039062	-298.6152648925781	-954.3345947265625	1416.48583984375	-236.37109375	-946.8084716796875	1125.920288085938	-176.7072296142578	-930.4520263671875	1116.932861328125	-273.6482238769531	-767.8440551757812	930.4338989257812	-156.6361846923828	-844.573486328125	898.3301391601562	-125.2488174438477	-914.6383056640625	1058.6103515625	-150.8912963867188	-712.3834228515625	748.3453369140625	-169.32763671875	-724.7651977539062	845.3771362304688	-138.3367462158203	-800.0985107421875	823.8531494140625	-116.8830108642578	-908.3140869140625	1663.872436523438	-420.0028076171875	-704.3827514648438	1723.065551757812	-461.5669555664062	-763.0741577148438	1721.543823242188	-345.77392578125	-854.911865234375	1672.924560546875	-546.3716430664062	-816.8501586914062	985.3041381835938	-643.157470703125	-890.8966674804688	997.1509399414062	-276.8748474121094	-796.2040405273438	1027.844604492188	-302.701416015625	-723.46826171875	1025.438720703125	-547.0492553710938	-604.4575805664062	523.8011474609375	-558.2656860351562	-660.8348388671875	654.620361328125	-601.8955688476562	-597.6395874023438	40.84984588623047	-565.6978759765625	-596.3853149414062	291.7656860351562	-576.7658081054688	-404.0248107910156	99.02386474609375	-499.9574890136719	-455.2669067382812	82.75542449951172	-462.822998046875	-487.1716003417969	52.08276748657227	-579.1052856445312	-660.4149780273438	38.03822708129883	-509.9019775390625	-895.7577514648438	498.3627014160156	-362.6621704101562	-850.4471435546875	759.7874145507812	-281.2264404296875	-1006.091979980469	31.26383972167969	-463.5675354003906	-887.4774780273438	381.02490234375	-397.681640625	-783.82080078125	48.09624481201172	-446.1961059570312	-825.4895629882812	44.59430694580078	-501.195068359375	-905.06689453125	31.33239555358887	-402.00927734375	-1040.141235351562	33.47903823852539	-541.9525146484375	
